<svg viewBox="0 0 380 650" xmlns="http://www.w3.org/2000/svg" role="img" font-family="Georgia, 'Times New Roman', serif">
  <title>How Vouch works, stacked for mobile in four steps: give the agent a verifiable ID, set the rules, sign every move, and anyone can check.</title>
  <desc>Four stacked rows, each with an icon on the left and a title and caption on the right.</desc>

  <rect x="1" y="1" width="378" height="648" fill="#FAF7EE" stroke="#D9CFB6" stroke-width="2"/>
  <text x="24" y="40" font-family="ui-monospace, monospace" font-size="13" letter-spacing="3" fill="#7C2D3A">HOW VOUCH WORKS</text>

  <g stroke="#D9CFB6" stroke-width="1.5">
    <line x1="24" y1="216" x2="356" y2="216"/>
    <line x1="24" y1="361" x2="356" y2="361"/>
    <line x1="24" y1="506" x2="356" y2="506"/>
  </g>

  <g>
    <rect x="48" y="116" width="80" height="52" rx="7" fill="#F2EBD9" stroke="#0F172A" stroke-width="2.5"/>
    <rect x="55" y="123" width="30" height="30" rx="4" fill="#FAF7EE" stroke="#0F172A" stroke-width="2"/>
    <line x1="70" y1="132" x2="70" y2="127" stroke="#0F172A" stroke-width="2" stroke-linecap="round"/>
    <circle cx="70" cy="125" r="2.2" fill="#7C2D3A"/>
    <rect x="61" y="132" width="18" height="14" rx="5" fill="#F2EBD9" stroke="#0F172A" stroke-width="2"/>
    <circle cx="66" cy="139" r="1.4" fill="#0F172A"/><circle cx="74" cy="139" r="1.4" fill="#0F172A"/>
    <g stroke="#64748B" stroke-width="2.5" stroke-linecap="round">
      <line x1="92" y1="126" x2="120" y2="126"/><line x1="92" y1="136" x2="120" y2="136"/><line x1="92" y1="146" x2="110" y2="146"/>
    </g>
    <circle cx="118" cy="158" r="8" fill="#7C2D3A"/>
    <path d="M114 158 l3 3 l5 -7" fill="none" stroke="#FAF7EE" stroke-width="2" stroke-linecap="round" stroke-linejoin="round"/>
  </g>
  <text x="150" y="112" font-family="ui-monospace, monospace" font-size="14" letter-spacing="2" fill="#7C2D3A">01</text>
  <text x="150" y="136" font-size="19" fill="#0F172A">Give it an ID</text>
  <text x="150" y="158" font-size="13" fill="#334155">A verifiable identity,</text>
  <text x="150" y="176" font-size="13" fill="#334155">like a passport.</text>

  <g>
    <path d="M58 258 h40 l14 14 v62 h-54 z" fill="#FAF7EE" stroke="#0F172A" stroke-width="2.5" stroke-linejoin="round"/>
    <path d="M98 258 v14 h14" fill="#F2EBD9" stroke="#0F172A" stroke-width="2" stroke-linejoin="round"/>
    <circle cx="70" cy="280" r="6" fill="none" stroke="#7C2D3A" stroke-width="2"/>
    <path d="M67 280 l2 2 l4 -5" fill="none" stroke="#7C2D3A" stroke-width="2" stroke-linecap="round" stroke-linejoin="round"/>
    <circle cx="70" cy="300" r="6" fill="none" stroke="#7C2D3A" stroke-width="2"/>
    <path d="M67 300 l2 2 l4 -5" fill="none" stroke="#7C2D3A" stroke-width="2" stroke-linecap="round" stroke-linejoin="round"/>
    <g stroke="#64748B" stroke-width="2.5" stroke-linecap="round">
      <line x1="82" y1="280" x2="104" y2="280"/><line x1="82" y1="300" x2="104" y2="300"/>
    </g>
    <path d="M60 322 q6 -9 12 0 t12 0" fill="none" stroke="#7C2D3A" stroke-width="2.5" stroke-linecap="round"/>
    <circle cx="104" cy="320" r="8" fill="#7C2D3A"/>
    <path d="M100 320 l3 3 l5 -7" fill="none" stroke="#FAF7EE" stroke-width="2" stroke-linecap="round" stroke-linejoin="round"/>
  </g>
  <text x="150" y="257" font-family="ui-monospace, monospace" font-size="14" letter-spacing="2" fill="#7C2D3A">02</text>
  <text x="150" y="281" font-size="19" fill="#0F172A">Set the rules</text>
  <text x="150" y="303" font-size="13" fill="#334155">The human signs</text>
  <text x="150" y="321" font-size="13" fill="#334155">what it may do.</text>

  <g>
    <rect x="48" y="405" width="80" height="52" rx="5" fill="#F2EBD9" stroke="#0F172A" stroke-width="2.5"/>
    <path d="M50 409 L88 435 L126 409" fill="none" stroke="#0F172A" stroke-width="2.5" stroke-linecap="round" stroke-linejoin="round"/>
    <circle cx="88" cy="453" r="12" fill="#7C2D3A" stroke="#FAF7EE" stroke-width="2"/>
    <path d="M82 453 l4 5 l8 -10" fill="none" stroke="#FAF7EE" stroke-width="2.5" stroke-linecap="round" stroke-linejoin="round"/>
  </g>
  <text x="150" y="402" font-family="ui-monospace, monospace" font-size="14" letter-spacing="2" fill="#7C2D3A">03</text>
  <text x="150" y="426" font-size="19" fill="#0F172A">Sign every move</text>
  <text x="150" y="448" font-size="13" fill="#334155">Each action carries</text>
  <text x="150" y="466" font-size="13" fill="#334155">its own signature.</text>

  <g>
    <circle cx="84" cy="570" r="28" fill="#7C2D3A"/>
    <path d="M70 570 l9 11 l19 -23" fill="none" stroke="#FAF7EE" stroke-width="4" stroke-linecap="round" stroke-linejoin="round"/>
    <circle cx="120" cy="546" r="9" fill="#FAF7EE" stroke="#64748B" stroke-width="2"/>
    <path d="M114 540 l12 12 M126 540 l-12 12" stroke="#64748B" stroke-width="2" stroke-linecap="round"/>
  </g>
  <text x="150" y="547" font-family="ui-monospace, monospace" font-size="14" letter-spacing="2" fill="#7C2D3A">04</text>
  <text x="150" y="571" font-size="19" fill="#0F172A">Anyone can check</text>
  <text x="150" y="593" font-size="13" fill="#334155">Tampering and fakes</text>
  <text x="150" y="611" font-size="13" fill="#334155">are rejected.</text>
</svg>
