<svg viewBox="0 0 1120 380" xmlns="http://www.w3.org/2000/svg" role="img" font-family="Georgia, 'Times New Roman', serif">
  <title>The trust handoff: a human delegates to a humanified AI agent that carries a verifiable identity badge, which then acts on an MCP server, with a signed checkpoint on each handoff.</title>
  <desc>A human figure on the left, an arrow labelled delegates with a check seal, a friendly AI agent character with a burgundy identity badge in the centre, an arrow labelled acts with a check seal, and a stacked MCP server on the right.</desc>
  <defs>
    <marker id="ah" markerWidth="12" markerHeight="12" refX="8.5" refY="5" orient="auto">
      <path d="M0,0 L10,5 L0,10 Z" fill="#0F172A"/>
    </marker>
  </defs>

  <rect x="1" y="1" width="1118" height="378" fill="#FAF7EE" stroke="#D9CFB6" stroke-width="2"/>
  <text x="40" y="46" font-family="ui-monospace, monospace" font-size="13" letter-spacing="4" fill="#7C2D3A">THE TRUST HANDOFF</text>

  <!-- HUMAN -->
  <g stroke="#0F172A" stroke-width="3" stroke-linecap="round" stroke-linejoin="round">
    <circle cx="150" cy="132" r="29" fill="#F2EBD9"/>
    <path d="M108 252 C108 198 192 198 192 252 Z" fill="#F2EBD9"/>
  </g>
  <text x="150" y="292" text-anchor="middle" font-size="20" fill="#0F172A">Human</text>
  <text x="150" y="312" text-anchor="middle" font-family="ui-monospace, monospace" font-size="11" letter-spacing="2" fill="#64748B">IN CHARGE</text>

  <!-- ARROW 1 -->
  <line x1="214" y1="160" x2="486" y2="160" stroke="#0F172A" stroke-width="3" marker-end="url(#ah)"/>
  <text x="350" y="138" text-anchor="middle" font-family="ui-monospace, monospace" font-size="11" letter-spacing="2" fill="#334155">DELEGATES</text>
  <g>
    <circle cx="350" cy="160" r="14" fill="#FAF7EE" stroke="#7C2D3A" stroke-width="2.5"/>
    <path d="M343 160 l5 6 l9 -12" fill="none" stroke="#7C2D3A" stroke-width="2.5" stroke-linecap="round" stroke-linejoin="round"/>
  </g>

  <!-- AI AGENT (humanified) -->
  <g stroke="#0F172A" stroke-width="3" stroke-linecap="round" stroke-linejoin="round">
    <line x1="540" y1="88" x2="540" y2="68"/>
    <circle cx="540" cy="60" r="6" fill="#7C2D3A" stroke="none"/>
    <rect x="494" y="88" width="92" height="70" rx="18" fill="#F2EBD9"/>
    <path d="M516 136 Q540 152 564 136" fill="none"/>
    <rect x="502" y="168" width="76" height="82" rx="16" fill="#FAF7EE"/>
    <path d="M502 190 q-22 6 -27 27" fill="none"/>
    <path d="M578 186 q26 -4 35 -26" fill="none"/>
    <line x1="522" y1="250" x2="522" y2="268"/>
    <line x1="558" y1="250" x2="558" y2="268"/>
  </g>
  <circle cx="518" cy="118" r="5.5" fill="#0F172A"/>
  <circle cx="562" cy="118" r="5.5" fill="#0F172A"/>
  <circle cx="508" cy="131" r="5" fill="#7C2D3A" opacity="0.25"/>
  <circle cx="572" cy="131" r="5" fill="#7C2D3A" opacity="0.25"/>
  <circle cx="614" cy="156" r="6" fill="#F2EBD9" stroke="#0F172A" stroke-width="2.5"/>
  <circle cx="540" cy="206" r="18" fill="#7C2D3A"/>
  <path d="M531 206 l6 7 l12 -15" fill="none" stroke="#FAF7EE" stroke-width="3" stroke-linecap="round" stroke-linejoin="round"/>
  <text x="540" y="292" text-anchor="middle" font-size="20" fill="#0F172A">AI Agent</text>
  <text x="540" y="312" text-anchor="middle" font-family="ui-monospace, monospace" font-size="11" letter-spacing="2" fill="#7C2D3A">VERIFIABLE IDENTITY</text>

  <!-- ARROW 2 -->
  <line x1="630" y1="160" x2="908" y2="160" stroke="#0F172A" stroke-width="3" marker-end="url(#ah)"/>
  <text x="772" y="138" text-anchor="middle" font-family="ui-monospace, monospace" font-size="11" letter-spacing="2" fill="#334155">ACTS · BUY · EMAIL · CODE</text>
  <g>
    <circle cx="772" cy="160" r="14" fill="#FAF7EE" stroke="#7C2D3A" stroke-width="2.5"/>
    <path d="M765 160 l5 6 l9 -12" fill="none" stroke="#7C2D3A" stroke-width="2.5" stroke-linecap="round" stroke-linejoin="round"/>
  </g>

  <!-- MCP SERVER -->
  <g stroke="#0F172A" stroke-width="3">
    <rect x="918" y="120" width="104" height="36" rx="7" fill="#F2EBD9"/>
    <rect x="918" y="164" width="104" height="36" rx="7" fill="#F2EBD9"/>
    <rect x="918" y="208" width="104" height="36" rx="7" fill="#FAF7EE"/>
  </g>
  <circle cx="936" cy="138" r="4" fill="#7C2D3A"/>
  <circle cx="936" cy="182" r="4" fill="#334155"/>
  <circle cx="936" cy="226" r="4" fill="#334155"/>
  <g stroke="#64748B" stroke-width="2" stroke-linecap="round">
    <line x1="992" y1="133" x2="1010" y2="133"/><line x1="992" y1="143" x2="1010" y2="143"/>
    <line x1="992" y1="177" x2="1010" y2="177"/><line x1="992" y1="187" x2="1010" y2="187"/>
  </g>
  <text x="970" y="292" text-anchor="middle" font-size="20" fill="#0F172A">MCP Server</text>
  <text x="970" y="312" text-anchor="middle" font-family="ui-monospace, monospace" font-size="11" letter-spacing="2" fill="#64748B">MONEY · DATA · TOOLS</text>

  <text x="560" y="356" text-anchor="middle" font-size="19" font-style="italic" fill="#334155">Every handoff is provable.</text>
</svg>
